<svg width="12" height="14" viewBox="0 0 12 14" fill="none" xmlns="http://www.w3.org/2000/svg">
<path d="M5.66671 7.33329C6.40309 7.33329 7.00004 6.73634 7.00004 5.99996C7.00004 5.26358 6.40309 4.66663 5.66671 4.66663C4.93033 4.66663 4.33337 5.26358 4.33337 5.99996C4.33337 6.73634 4.93033 7.33329 5.66671 7.33329Z" stroke="#828384" stroke-width="1.5" stroke-linecap="round" stroke-linejoin="round"/>
<path d="M5.66667 13C5.66667 13 10.3333 9.76923 10.3333 5.61538C10.3333 4.39131 9.84167 3.21737 8.9665 2.35181C8.09133 1.48626 6.90434 1 5.66667 1C4.42899 1 3.242 1.48626 2.36683 2.35181C1.49167 3.21737 1 4.39131 1 5.61538C1 9.76923 5.66667 13 5.66667 13Z" stroke="#828384" stroke-width="1.5" stroke-linecap="round" stroke-linejoin="round"/>
</svg>
