<svg width="23" height="23" viewBox="0 0 23 23" fill="none" xmlns="http://www.w3.org/2000/svg">
<path d="M11.1264 17.5825C7.41761 17.5825 5.76922 15.6594 5.76922 14.2858C5.76922 14.011 5.90665 13.599 6.18137 13.4616C6.4561 13.1869 6.73079 13.1869 7.00552 13.1869C8.51651 13.1869 8.10442 15.522 11.1264 15.522C12.6374 15.522 13.4616 14.5605 13.4616 13.7363C13.4616 13.1869 13.1868 12.6374 12.2253 12.3627L8.92863 11.5385C6.31874 10.8517 5.90663 9.34069 5.90663 8.10442C5.90663 5.2198 8.51655 4.25826 10.9891 4.25826C13.1869 4.25826 15.9341 5.49452 15.9341 7.14288C15.9341 7.8297 15.3847 8.24179 14.5605 8.24179C13.1869 8.24179 13.4616 6.3187 10.7143 6.3187C9.34071 6.3187 8.65389 7.00552 8.65389 7.8297C8.65389 8.65388 9.75275 9.06597 10.5769 9.20333L13.0495 9.75278C15.6594 10.3022 16.3462 11.9506 16.3462 13.3242C16.3462 15.9341 14.5605 17.5825 11.1264 17.5825ZM21.2913 12.7748C21.4287 12.2253 21.4286 11.5385 21.4286 10.9891C21.4286 7.96706 20.055 5.08244 17.7198 3.02199C15.3847 0.961542 12.2253 0.274726 9.20329 0.686816C8.37912 0.274726 7.28028 0 6.18137 0C3.98356 0 1.92308 1.23627 0.824179 3.15935C-0.274726 5.08244 -0.274726 7.41761 0.824179 9.34069C0.274726 12.6374 1.23623 16.0715 3.70877 18.544C6.04394 20.8792 9.47807 21.9781 12.7748 21.4286C13.7363 21.9781 14.6979 22.2528 15.7968 22.2528C17.9946 22.2528 20.055 21.0166 21.1539 19.0935C22.2528 17.033 22.3902 14.6979 21.2913 12.7748Z" fill="#1F2124"/>
</svg>
