<svg width="23" height="24" viewBox="0 0 23 24" fill="none" xmlns="http://www.w3.org/2000/svg">
<path fill-rule="evenodd" clip-rule="evenodd" d="M22.68 11.8344C22.68 11.0139 22.6064 10.2249 22.4696 9.46753H11.5714V13.9436H17.799C17.5307 15.39 16.7154 16.6155 15.4899 17.436V20.3394H19.2296C21.4177 18.3249 22.68 15.3584 22.68 11.8344Z" fill="#1F2124"/>
<path fill-rule="evenodd" clip-rule="evenodd" d="M11.571 23.1428C14.6953 23.1428 17.3146 22.1066 19.2292 20.3393L15.4895 17.4359C14.4533 18.1302 13.1279 18.5405 11.571 18.5405C8.55714 18.5405 6.00617 16.505 5.09623 13.7699H1.23032V16.768C3.13434 20.5497 7.0476 23.1428 11.571 23.1428Z" fill="#1F2124"/>
<path fill-rule="evenodd" clip-rule="evenodd" d="M5.09669 13.77C4.86526 13.0757 4.73377 12.334 4.73377 11.5714C4.73377 10.8087 4.86526 10.0671 5.09669 9.37281V6.37476H1.23078C0.447078 7.9369 0 9.70418 0 11.5714C0 13.4386 0.447078 15.2059 1.23078 16.768L5.09669 13.77Z" fill="#1F2124"/>
<path fill-rule="evenodd" clip-rule="evenodd" d="M11.571 4.60228C13.2699 4.60228 14.7952 5.18611 15.9944 6.33273L19.3133 3.01383C17.3094 1.14662 14.69 0 11.571 0C7.0476 0 3.13434 2.59305 1.23032 6.37481L5.09623 9.37287C6.00617 6.6378 8.55714 4.60228 11.571 4.60228Z" fill="#1F2124"/>
</svg>
